<?xml version="1.0" encoding="UTF-8"?>
<svg version="1.1" viewBox="0 0 574 574" xmlns="http://www.w3.org/2000/svg">
<path d="m131.5 521.6c-12.509-6.2327-13.509-9.7582-8.4543-29.782l3.0457-12.064-6.3643-6.6274c-19.546-20.354-33.896-55.185-38.368-93.127-3.7768-32.044 1.5178-91.106 8.9555-99.9 0.74455-0.88027 3.0717-6.5505 5.1714-12.6 26.859-77.389 85.401-126.32 179.47-150.01 5.753-1.4486 12.278-3.4582 14.5-4.4658 2.222-1.0076 12.365-3.4777 22.54-5.489 75.107-14.847 89.781-18.451 110.22-27.071 16.367-6.9025 32.615-18.319 38.281-26.896 19.048-28.836 48.702 98.496 40.62 174.42-2.3094 21.694-7.1294 47.167-10.125 53.51-1.039 2.2-3.5227 9.625-5.5194 16.5-24.64 84.842-93.45 153.44-180.48 179.92-5.775 1.7574-11.625 3.7896-13 4.516-11.961 6.3187-60.647 12.29-91.5 11.222-16.337-0.56531-21.087-1.009-34.112-3.1863l-4.1119-0.68735-2.1826 8.3557c-6.6409 25.423-13.445 31.005-28.594 23.457z" fill="#f9eed0"/>
<path d="m136.5 522.09c-14.423-3.6146-17.071-9.3857-12.641-27.546 3.9853-16.337 4.0911-15.188-1.9405-21.078-27.992-27.336-46.63-95.291-39.952-145.67 0.53149-4.01 1.4618-11.116 2.0674-15.791 1.035-7.9898 3.7627-20.42 6.0896-27.75l1.0317-3.25h173.83l26.016-21.443v-72.719c0-43.585 0.37141-72.949 0.92703-73.292 0.50987-0.31512 11.197-2.5969 23.75-5.0706 51.78-10.204 59.327-11.772 70.323-14.611 39.693-10.249 65.449-23.953 77.532-41.252 4.103-5.8742 8.9764 0.38608 16.905 21.716 19.16 51.542 25.48 116.93 16.641 172.17-2.1829 13.642-4.2271 24.29-5.474 28.513l-1.3247 4.4868-190.06 1-10.219 9.4137v95.508c0 92.095-0.0665 95.544-1.8604 96.504-15.485 8.2875-84.714 13.319-113.63 8.2595-14.233-2.4904-12.662-3.6274-17.09 12.364-3.7177 13.425-5.1974 16.741-8.1668 18.3-2.7031 1.4196-9.4218 2.0718-12.75 1.2378z" fill="#91a06a"/>
<path d="m133.5 519.67c-11.104-5.0544-12.187-8.4764-7.9531-25.139 1.8992-7.4744 3.454-14.813 3.4552-16.308 0.012-15.663 35.424-83.619 61.269-117.58 21.798-28.64 65.052-73.69 75.027-78.142 2.6822-1.1972 23.919-18.989 28.273-23.687 1.6891-1.8224 10.689-9.1346 20-16.249 69.685-53.248 91.624-73.774 120.79-113 13.031-17.527 9.4506-4.8392-5.4854 19.44-22.3 36.251-51.426 67.347-98.376 105.03-7.15 5.7391-16.459 13.479-20.687 17.201-4.2281 3.7213-8.1696 6.7661-8.7588 6.7661-1.681 0-42.925 40.999-56.566 56.229-42.199 47.117-67.351 94.902-88.571 168.27-5.1986 17.974-10.956 22.383-22.417 17.166z" fill="#6c7a49"/>
</svg>
